<svg xmlns="http://www.w3.org/2000/svg" viewBox="0 0 466 416.38"><title>Asset 1</title><g id="Layer_2" data-name="Layer 2"><g id="Layer_1-2" data-name="Layer 1"><path d="M0,139a18.69,18.69,0,0,1,18.68-18.66H136.34A18.65,18.65,0,0,1,155,139v25.35a18.1,18.1,0,0,1-3.88,11.2,18.12,18.12,0,0,1,3.88,11.2v23.39a18.26,18.26,0,0,1-.68,4.88,18.26,18.26,0,0,1,4.88-.68h40.67a7.22,7.22,0,0,1,7.32,6.81,7,7,0,0,1-7,7.19H159.31a4.32,4.32,0,0,0-4.31,4.3v24.39a4.32,4.32,0,0,0,4.31,4.31H276.7a4.32,4.32,0,0,0,4.3-4.31v-27a1.69,1.69,0,0,0-1.69-1.69H233.64a3,3,0,0,1-2.15-.92c-5.65-6-1.49-13.08,4.32-13.08h51.85a7.34,7.34,0,0,1,7.34,7.34v35.52a18.45,18.45,0,0,1-4,11.46,18.47,18.47,0,0,1,4,11.46v23.92a18.69,18.69,0,0,1-.7,5,18.9,18.9,0,0,1,5-.7h118A18.65,18.65,0,0,1,436,327v23.88a18.47,18.47,0,0,1-4,11.46,18.45,18.45,0,0,1,4,11.46v23.88a18.65,18.65,0,0,1-18.66,18.66H300a18.63,18.63,0,0,1-11.5-4,18.58,18.58,0,0,1-11.49,4H159.31a18.61,18.61,0,0,1-11.49-4,18.61,18.61,0,0,1-11.49,4H18.66A18.65,18.65,0,0,1,0,397.72v-24a18.52,18.52,0,0,1,4-11.48,18.52,18.52,0,0,1-4-11.48v-24a18.52,18.52,0,0,1,4-11.48,18.52,18.52,0,0,1-4-11.48v-24a18.52,18.52,0,0,1,4-11.48A18.52,18.52,0,0,1,0,256.9v-24a18.52,18.52,0,0,1,4-11.48A18.53,18.53,0,0,1,0,210V186A18.52,18.52,0,0,1,4,174.5,18.53,18.53,0,0,1,0,163V139ZM295,398a4.39,4.39,0,0,0,4.3,4.36H416.7a4.32,4.32,0,0,0,4.3-4.31V373.68a4.32,4.32,0,0,0-4.3-4.3H299.31a4.32,4.32,0,0,0-4.31,4.3V398Zm0-47a4.39,4.39,0,0,0,4.3,4.36H416.7a4.32,4.32,0,0,0,4.3-4.31V326.68a4.32,4.32,0,0,0-4.3-4.3H299.31a4.32,4.32,0,0,0-4.31,4.3V351ZM155,398a4.39,4.39,0,0,0,4.3,4.36H276.7a4.32,4.32,0,0,0,4.3-4.31V373.68a4.32,4.32,0,0,0-4.3-4.3H159.31a4.32,4.32,0,0,0-4.31,4.3V398Zm0-47a4.39,4.39,0,0,0,4.3,4.36H276.7a4.32,4.32,0,0,0,4.3-4.31V326.68a4.32,4.32,0,0,0-4.3-4.3H159.31a4.32,4.32,0,0,0-4.31,4.3V351Zm0-47a4.39,4.39,0,0,0,4.3,4.36H276.7a4.32,4.32,0,0,0,4.3-4.31V279.68a4.32,4.32,0,0,0-4.3-4.3H159.31a4.32,4.32,0,0,0-4.31,4.3V304ZM135.7,181.38H18.31a4.32,4.32,0,0,0-4.31,4.3v24.39a4.32,4.32,0,0,0,4.31,4.31H135.7a4.32,4.32,0,0,0,4.3-4.31V185.68A4.32,4.32,0,0,0,135.7,181.38Zm0,47H18.31a4.32,4.32,0,0,0-4.31,4.3v24.39a4.32,4.32,0,0,0,4.31,4.31H135.7a4.32,4.32,0,0,0,4.3-4.31V232.68A4.32,4.32,0,0,0,135.7,228.38Zm0,47H18.31a4.32,4.32,0,0,0-4.31,4.3v24.39a4.32,4.32,0,0,0,4.31,4.31H135.7a4.32,4.32,0,0,0,4.3-4.31V279.68A4.32,4.32,0,0,0,135.7,275.38Zm0,47H18.31a4.32,4.32,0,0,0-4.31,4.3v24.39a4.32,4.32,0,0,0,4.31,4.31H135.7a4.32,4.32,0,0,0,4.3-4.31V326.68A4.32,4.32,0,0,0,135.7,322.38ZM14,398h0a4.39,4.39,0,0,0,4.3,4.36H135.7a4.32,4.32,0,0,0,4.3-4.31V373.68a4.32,4.32,0,0,0-4.3-4.3H18.31a4.32,4.32,0,0,0-4.31,4.3V398Zm0-235a4.39,4.39,0,0,0,4.3,4.36H135.7a4.32,4.32,0,0,0,4.3-4.31V138.68a4.32,4.32,0,0,0-4.3-4.3H18.31a4.32,4.32,0,0,0-4.31,4.3V163Z"/><path d="M292.48,152.46l-30.15,5.32A7.05,7.05,0,0,1,254,152a6.8,6.8,0,0,1,5.86-8l13-2.28L30.47,13.06A7.18,7.18,0,1,1,38.7,1.3L281.64,129.72l-2.33-13.23a6.54,6.54,0,0,1,5.38-8.23,7.33,7.33,0,0,1,8.41,5.8l5.32,30.16A7.2,7.2,0,0,1,292.48,152.46Z"/><path d="M458.77,213a7.17,7.17,0,0,0-8.86,4.94,70.58,70.58,0,1,1,1.82-30.41,7.18,7.18,0,0,0,14.18-2.24,85,85,0,1,0-2.2,36.57A7.17,7.17,0,0,0,458.77,213Z"/><path d="M381.55,143.13a55.52,55.52,0,1,0,55.52,55.52A55.59,55.59,0,0,0,381.55,143.13Zm0,96.68a41.16,41.16,0,1,1,41.17-41.16A41.21,41.21,0,0,1,381.55,239.81Z"/><path d="M385.22,193.42V179.19c2.87.24,4.43,1,7.69,2.59a3.63,3.63,0,0,0,5-1.71c1.06-1.79,1.76-4.65-.4-6.45-3.08-2.55-8.49-3.36-12.26-3.36v-2.13c-.15-1.21-1.65-2-2.9-2s-2.75.85-2.1,2v2.27c-10,1.23-16.33,6.26-16.33,15.76,0,9.74,7,13,16.33,16.25v16.09c-4.93-.51-7-2.19-11-5.21-2-1.51-4-.94-5.45,1.13-1.9,2.67-1.63,5,0,7.14,3,4.11,9.68,6.52,16.49,6.52v2.29c-.65,1.23.77,2,2.1,2s2.75-.83,2.9-2v-2.51c8-1.26,15.13-6.43,15.13-17.14C400.35,200.91,394.18,196.73,385.22,193.42Zm-5-1.78c-4.86-1.94-6.47-3.51-6.47-6.55,0-3.52,3-5.11,6.47-5.66Zm4,26.76V204.34c5,2.2,6.07,4.6,6.07,7.43C390.29,215.5,387.87,217.63,384.22,218.4Z"/></g></g></svg>