<svg xmlns="http://www.w3.org/2000/svg" viewBox="0 0 132.97 131.37"><defs><style>.cls-1{fill:#f54784;}</style></defs><title>Asset 2</title><g id="Layer_2" data-name="Layer 2"><g id="Layer_1-2" data-name="Layer 1"><path class="cls-1" d="M122,62.63H11a11,11,0,0,0-11,11v46.72a11,11,0,0,0,11,11H122a11,11,0,0,0,11-11V73.64A11,11,0,0,0,122,62.63Zm6,57.73a6,6,0,0,1-6,6H11a6,6,0,0,1-6-6V73.64a6,6,0,0,1,6-6H122a6,6,0,0,1,6,6Z"/><path class="cls-1" d="M98.59,86.65a6.15,6.15,0,0,0-6.14,6.14v8.42a6.15,6.15,0,0,0,6.14,6.14H125a2.5,2.5,0,1,0,0-5H98.59a1.14,1.14,0,0,1-1.14-1.14V92.79a1.14,1.14,0,0,1,1.14-1.14H125a2.5,2.5,0,1,0,0-5Z"/><path class="cls-1" d="M100.37,97a3.16,3.16,0,1,0,3.16-3.16A3.15,3.15,0,0,0,100.37,97Z"/><path class="cls-1" d="M30.53,60.42a2,2,0,0,0,1-2.64,38,38,0,0,1-3.25-13.65h3.22a35,35,0,0,0,4.54,15.46,2,2,0,0,0,3.47-2,31.09,31.09,0,0,1-4.05-14.89,2.26,2.26,0,0,0,.09-.58,2.12,2.12,0,0,0-.09-.57A30.79,30.79,0,0,1,39.52,26.9a1,1,0,0,0,.18-.23,1.76,1.76,0,0,0,.17-.37,31,31,0,0,1,53.23,0,1.76,1.76,0,0,0,.17.37,1.41,1.41,0,0,0,.18.23,30.79,30.79,0,0,1,4,14.66,2.12,2.12,0,0,0-.09.57,2.26,2.26,0,0,0,.09.58,31,31,0,0,1-4,14.89,2,2,0,0,0,3.47,2,35,35,0,0,0,4.54-15.46h3.22a38,38,0,0,1-3.25,13.65,2,2,0,0,0,1,2.64,1.93,1.93,0,0,0,.81.17,2,2,0,0,0,1.83-1.18A42.2,42.2,0,0,0,87.6,5.68l0,0,0,0a42.1,42.1,0,0,0-42,0l0,0s0,0,0,0A42.19,42.19,0,0,0,27.89,59.41,2,2,0,0,0,30.53,60.42ZM32.47,24.8l2.78,1.61a34.7,34.7,0,0,0-3.73,13.72H28.3A38.14,38.14,0,0,1,32.47,24.8Zm36-17.53V4.05a38,38,0,0,1,15.3,4.11l-1.6,2.78A34.8,34.8,0,0,0,68.49,7.27Zm-4,0a34.8,34.8,0,0,0-13.71,3.67l-1.6-2.78A38,38,0,0,1,64.49,4.05Zm40.18,32.86h-3.22a34.7,34.7,0,0,0-3.73-13.72l2.78-1.61A38,38,0,0,1,104.67,40.13ZM98.49,21.35,95.71,23a35.39,35.39,0,0,0-10.06-10l1.61-2.78A38.63,38.63,0,0,1,98.49,21.35ZM45.72,10.16l1.6,2.78A35.39,35.39,0,0,0,37.26,23l-2.78-1.6A38.54,38.54,0,0,1,45.72,10.16Z"/><path class="cls-1" d="M70.8,53.6a9.19,9.19,0,0,1-5.62,1.46,14.21,14.21,0,0,1-3.57-.39,15.88,15.88,0,0,1-2.51-.85A15,15,0,0,1,57.44,53a2.18,2.18,0,0,0-1-.38.88.88,0,0,0-.41.09.68.68,0,0,0-.27.34,2.74,2.74,0,0,0-.16.63,8,8,0,0,0,0,.95,6.25,6.25,0,0,0,.1,1.22,1.47,1.47,0,0,0,.38.72,4,4,0,0,0,.86.59,12.67,12.67,0,0,0,1.42.6c.56.19,1.19.36,1.91.53.23,0,.48.11.73.15a2.18,2.18,0,0,1,.45.16H68a15,15,0,0,0,2.79-.66,11.11,11.11,0,0,0,3.57-2A8.4,8.4,0,0,0,76.59,53a8.87,8.87,0,0,0,.79-3.79,8.49,8.49,0,0,0-.72-3.69A7.87,7.87,0,0,0,74.79,43a10.33,10.33,0,0,0-2.65-1.72c-1-.45-2-.87-3-1.24l-3-1.08a13.84,13.84,0,0,1-2.65-1.25A6.25,6.25,0,0,1,61.55,36a4.45,4.45,0,0,1-.72-2.6,5,5,0,0,1,.35-1.88A3.71,3.71,0,0,1,62.3,30a5.37,5.37,0,0,1,2-.95,11.21,11.21,0,0,1,3-.34,10.45,10.45,0,0,1,2.79.34,17.16,17.16,0,0,1,2.2.73,15.41,15.41,0,0,1,1.58.73,2.4,2.4,0,0,0,.91.34.5.5,0,0,0,.32-.11.84.84,0,0,0,.21-.31,2.29,2.29,0,0,0,.11-.58,7,7,0,0,0,0-.85,5,5,0,0,0,0-.71,3.71,3.71,0,0,0-.09-.55,1.37,1.37,0,0,0-.45-.8,3.84,3.84,0,0,0-.83-.51,10.63,10.63,0,0,0-1.34-.55c-.49-.16-1-.31-1.59-.44l-.08,0a1.75,1.75,0,0,1-1.37-1.89l.4-3.58a1,1,0,0,0-.06-.36.49.49,0,0,0-.24-.28,1.61,1.61,0,0,0-.58-.17,8.12,8.12,0,0,0-1-.05,6.58,6.58,0,0,0-.86,0,1.37,1.37,0,0,0-.49.14.6.6,0,0,0-.25.25,1.14,1.14,0,0,0-.09.3l-.38,3.86a1.76,1.76,0,0,1-1.51,1.55,12.64,12.64,0,0,0-2.88.73,9.24,9.24,0,0,0-3,1.85A7.24,7.24,0,0,0,57,30.45a8.79,8.79,0,0,0-.6,3.26,8.65,8.65,0,0,0,.7,3.69,8,8,0,0,0,1.85,2.54,10.8,10.8,0,0,0,2.62,1.75,30.13,30.13,0,0,0,3,1.25l3,1.08a13.39,13.39,0,0,1,2.63,1.28A6.31,6.31,0,0,1,72,47.07a4.44,4.44,0,0,1,.7,2.57A4.69,4.69,0,0,1,70.8,53.6Z"/></g></g></svg>