<svg xmlns="http://www.w3.org/2000/svg" viewBox="0 0 90.08 132.64"><defs><style>.cls-1{fill:#fff;}</style></defs><title>Asset 1</title><g id="Layer_2" data-name="Layer 2"><g id="Layer_1-2" data-name="Layer 1"><path class="cls-1" d="M63.67,48A2.49,2.49,0,0,0,62,47.35H28A2.54,2.54,0,0,0,26.4,48C25.33,48.89,0,71,0,99.21c0,29.63,24.07,33.43,45,33.43s45-3.8,45-33.43C90.08,71,64.75,48.89,63.67,48ZM45,127.64c-20.8,0-40-3.45-40-28.43C5,75.79,25.05,56,29,52.35H61.08c4,3.66,24,23.39,24,46.86C85.08,124.19,65.83,127.64,45,127.64Z"/><path class="cls-1" d="M24.35,118.62c-7.24-2.35-11-6.51-12.26-13.5a2.5,2.5,0,0,0-4.93.88c1.56,8.79,6.68,14.47,15.65,17.37a2.35,2.35,0,0,0,.77.13,2.5,2.5,0,0,0,.77-4.88Z"/><path class="cls-1" d="M28.53,41a2.5,2.5,0,0,0,0,5h33a2.5,2.5,0,0,0,0-5Z"/><path class="cls-1" d="M28.69,37.62a2.51,2.51,0,0,0,2.38,1.73H58.84a2.49,2.49,0,0,0,2.37-1.73l8.11-24.81a2.52,2.52,0,0,0-.76-2.68,5.54,5.54,0,0,1-1.51-2.21,8.59,8.59,0,0,0-5.37-5.06A4.69,4.69,0,0,0,60,2.57a11.24,11.24,0,0,0-4,1,8,8,0,0,1-3.3.82A8.5,8.5,0,0,1,50.89,3C49.36,1.66,47.46,0,45,0S40.54,1.66,39,3A8.74,8.74,0,0,1,37.14,4.4a7.52,7.52,0,0,1-3.31-.82,11.19,11.19,0,0,0-4-1,4.73,4.73,0,0,0-1.65.29,8.59,8.59,0,0,0-5.36,5.06,5.64,5.64,0,0,1-1.51,2.21,2.48,2.48,0,0,0-.76,2.68ZM27.39,10A3.67,3.67,0,0,1,29.9,7.57,10.57,10.57,0,0,1,32,8.24a13.29,13.29,0,0,0,4.82,1.18A6.71,6.71,0,0,0,38,9.33a9.21,9.21,0,0,0,4.35-2.57C43.16,6,44.32,5,45,5s1.8,1,2.65,1.76A9.16,9.16,0,0,0,52,9.33a6.53,6.53,0,0,0,1.1.09,13.61,13.61,0,0,0,4.82-1.18A9.86,9.86,0,0,1,60,7.57,3.71,3.71,0,0,1,62.52,10a11.67,11.67,0,0,0,1.58,2.65L57,34.35H32.88L25.81,12.69A11.67,11.67,0,0,0,27.39,10Z"/><path class="cls-1" d="M52.17,91.5a8.78,8.78,0,0,0-2.3-1.5q-1.29-.59-2.64-1.08L44.59,88a10.88,10.88,0,0,1-2.3-1.09,5.35,5.35,0,0,1-1.63-1.54A3.87,3.87,0,0,1,40,83.08a4.15,4.15,0,0,1,.31-1.63,3.1,3.1,0,0,1,1-1.28,4.83,4.83,0,0,1,1.75-.83,10.25,10.25,0,0,1,2.6-.29,9.5,9.5,0,0,1,2.42.29A16,16,0,0,1,50,80a14.43,14.43,0,0,1,1.37.63,2,2,0,0,0,.79.3.45.45,0,0,0,.28-.09.75.75,0,0,0,.18-.28,2.17,2.17,0,0,0,.1-.5c0-.21,0-.46,0-.74a5.85,5.85,0,0,0,0-.62,4.13,4.13,0,0,0-.08-.47,1.17,1.17,0,0,0-.13-.36,1.11,1.11,0,0,0-.27-.34,3,3,0,0,0-.71-.45,9.19,9.19,0,0,0-1.17-.47c-.43-.15-.89-.27-1.38-.39h-.07a1.51,1.51,0,0,1-1.19-1.65l.34-3.11a1,1,0,0,0-.05-.32.47.47,0,0,0-.21-.24,1.52,1.52,0,0,0-.5-.14,6.25,6.25,0,0,0-.83,0,7.34,7.34,0,0,0-.75,0,1.37,1.37,0,0,0-.43.13.53.53,0,0,0-.21.21.84.84,0,0,0-.08.27l-.33,3.35A1.53,1.53,0,0,1,43.35,76a10.76,10.76,0,0,0-2.5.64,8,8,0,0,0-2.63,1.6,6.37,6.37,0,0,0-1.57,2.31,7.74,7.74,0,0,0-.52,2.83,7.66,7.66,0,0,0,.61,3.21,7,7,0,0,0,1.61,2.21,9.75,9.75,0,0,0,2.28,1.52c.86.41,1.73.77,2.61,1.09l2.61.94a11.6,11.6,0,0,1,2.29,1.11A5.56,5.56,0,0,1,49.76,95a3.85,3.85,0,0,1,.61,2.23,4.1,4.1,0,0,1-1.66,3.45A8,8,0,0,1,43.82,102a12.21,12.21,0,0,1-3.11-.34,14.11,14.11,0,0,1-2.18-.74,13,13,0,0,1-1.45-.72,1.83,1.83,0,0,0-.83-.33.8.8,0,0,0-.36.08.58.58,0,0,0-.23.29,2.31,2.31,0,0,0-.14.55,6.37,6.37,0,0,0,0,.83,4.9,4.9,0,0,0,.09,1.06,1.26,1.26,0,0,0,.32.62,3.2,3.2,0,0,0,.75.51,7.81,7.81,0,0,0,1.24.53c.48.16,1,.32,1.65.46l.64.14a1.5,1.5,0,0,1,1.23,1.63L41,110a.53.53,0,0,0,0,.33.45.45,0,0,0,.24.23,2.58,2.58,0,0,0,.49.13,4.44,4.44,0,0,0,.82.06,4.76,4.76,0,0,0,.74,0,1.59,1.59,0,0,0,.44-.12.41.41,0,0,0,.22-.21,1.12,1.12,0,0,0,.08-.26l.37-3.67a1.52,1.52,0,0,1,1.34-1.35,14.06,14.06,0,0,0,2.89-.64,9.67,9.67,0,0,0,3.11-1.71,7.39,7.39,0,0,0,2-2.55,7.74,7.74,0,0,0,.69-3.3,7.45,7.45,0,0,0-.62-3.2A6.9,6.9,0,0,0,52.17,91.5Z"/></g></g></svg>