<?xml version="1.0" encoding="iso-8859-1"?>
<!-- Generator: Adobe Illustrator 19.0.0, SVG Export Plug-In . SVG Version: 6.00 Build 0)  -->
<svg version="1.1" id="Capa_1" xmlns="http://www.w3.org/2000/svg" xmlns:xlink="http://www.w3.org/1999/xlink" x="0px" y="0px"
	 viewBox="0 0 512 512" style="enable-background:new 0 0 512 512;" xml:space="preserve">
<g>
	<g>
		<path d="M480.353,222.152c0-10.754-8.748-19.501-19.501-19.501H338.006c-10.753,0-19.501,8.748-19.501,19.501v25.057
			c0,4.527,1.564,8.688,4.161,12.001c-2.598,3.313-4.161,7.473-4.161,12.001v25.056c0,1.815,0.268,3.566,0.734,5.234
			c-1.669-0.466-3.419-0.734-5.234-0.734h-43.922c-4.142,0-7.5,3.358-7.5,7.5c0,4.142,3.358,7.5,7.5,7.5h43.922
			c2.439,0,4.5,2.061,4.5,4.5v25.057c0,2.439-2.061,4.5-4.5,4.5H191.158c-2.439,0-4.5-2.061-4.5-4.5v-25.057
			c0-2.439,2.061-4.5,4.5-4.5h43.923c4.142,0,7.5-3.358,7.5-7.5c0-4.142-3.358-7.5-7.5-7.5h-43.923
			c-10.753,0-19.501,8.749-19.501,19.501v25.057c0,4.527,1.564,8.688,4.161,12.001c-2.598,3.313-4.161,7.473-4.161,12.001v25.057
			c0,1.815,0.268,3.566,0.734,5.234c-1.669-0.466-3.419-0.734-5.234-0.734H44.31c-10.753,0-19.501,8.749-19.501,19.501v25.056
			c0,4.527,1.564,8.688,4.161,12.001c-2.598,3.313-4.161,7.473-4.161,12.001v25.057c0,10.753,8.749,19.501,19.501,19.501h122.845
			c4.527,0,8.688-1.564,12.001-4.161c3.313,2.598,7.473,4.161,12.001,4.161h122.846c4.527,0,8.688-1.564,12.001-4.161
			c3.313,2.598,7.473,4.161,12.001,4.161h122.846c10.753,0,19.501-8.748,19.501-19.501v-25.057c0-4.527-1.564-8.688-4.161-12.001
			c2.598-3.313,4.161-7.473,4.161-12.001v-25.056c0-4.527-1.564-8.688-4.161-12.001c2.598-3.313,4.161-7.473,4.161-12.001v-25.057
			c0-4.527-1.564-8.688-4.161-12.001c2.598-3.313,4.161-7.473,4.161-12.001v-25.057c0-4.527-1.564-8.688-4.161-12.001
			c2.598-3.313,4.161-7.473,4.161-12.001V271.21c0-4.527-1.564-8.688-4.161-12.001c2.598-3.313,4.161-7.473,4.161-12.001V222.152z
			 M171.656,492.499c0.001,2.439-2.06,4.5-4.499,4.5H44.31c-2.439,0-4.5-2.061-4.5-4.5v-25.057c0-2.439,2.061-4.5,4.5-4.5h122.845
			c2.439,0,4.5,2.061,4.5,4.5V492.499z M171.656,443.441c0,2.439-2.061,4.5-4.5,4.5H44.31c-2.439,0-4.5-2.061-4.5-4.5v-25.057
			c0-2.439,2.061-4.5,4.5-4.5h122.845c2.439,0,4.5,2.061,4.5,4.5V443.441z M318.505,492.499c0,2.439-2.061,4.5-4.5,4.5H191.158
			c-2.439,0-4.5-2.061-4.5-4.5v-25.057c0-2.439,2.061-4.5,4.5-4.5h122.846c2.439,0,4.5,2.061,4.5,4.5V492.499z M318.505,443.441
			c0,2.439-2.061,4.5-4.5,4.5H191.158c-2.44,0-4.5-2.061-4.5-4.5v-25.057c0-2.439,2.061-4.5,4.5-4.5h122.846
			c2.439,0,4.5,2.061,4.5,4.5V443.441z M318.505,394.383c0,2.439-2.061,4.5-4.5,4.5H191.158c-2.439,0-4.5-2.061-4.5-4.5v-25.057
			c0-2.439,2.061-4.5,4.5-4.5h122.846c2.439,0,4.5,2.061,4.5,4.5V394.383z M333.506,271.21c0-2.439,2.061-4.5,4.5-4.5h122.846
			c2.439,0,4.499,2.06,4.499,4.5v25.056c0,2.439-2.061,4.5-4.5,4.5H338.006c-2.439,0-4.5-2.061-4.5-4.5V271.21z M333.506,320.268
			c0-2.439,2.061-4.5,4.5-4.5h122.846c2.439,0,4.499,2.06,4.499,4.5v25.057c0,2.439-2.061,4.5-4.5,4.5H338.006
			c-2.439,0-4.5-2.061-4.5-4.5V320.268z M333.506,369.326c0-2.439,2.061-4.5,4.5-4.5h122.846c2.439,0,4.499,2.06,4.499,4.5v25.057
			c0,2.439-2.061,4.5-4.5,4.5H338.006c-2.439,0-4.5-2.061-4.5-4.5V369.326z M333.506,418.384c0-2.439,2.061-4.5,4.5-4.5h122.846
			c2.439,0,4.499,2.06,4.499,4.5v25.057c0,2.439-2.061,4.5-4.5,4.5H338.006c-2.439,0-4.5-2.061-4.5-4.5V418.384z M465.353,492.499
			L465.353,492.499c-0.001,2.439-2.062,4.5-4.501,4.5H338.006c-2.439,0-4.5-2.061-4.5-4.5v-25.057c0-2.439,2.061-4.5,4.5-4.5
			h122.846c2.439,0,4.5,2.061,4.5,4.5V492.499z M465.353,247.209c0,2.439-2.061,4.5-4.5,4.5H338.006c-2.439,0-4.5-2.061-4.5-4.5
			v-25.057c0-2.439,2.061-4.5,4.5-4.5h122.846c2.439,0,4.5,2.061,4.5,4.5V247.209z"/>
	</g>
</g>
<g>
	<g>
		<path d="M285.415,120.793h-32.003c-4.142,0-7.5,3.358-7.5,7.5c0,4.142,3.358,7.5,7.5,7.5h13.755L38.603,364.357
			c-2.929,2.929-2.929,7.678,0,10.607c1.465,1.465,3.384,2.198,5.304,2.198c1.919,0,3.839-0.732,5.303-2.197l228.704-228.704v14.036
			c0,4.142,3.358,7.5,7.5,7.5c4.142,0,7.5-3.358,7.5-7.5v-32.003C292.915,124.152,289.557,120.793,285.415,120.793z"/>
	</g>
</g>
<g>
	<g>
		<path d="M479.635,103.792c-3.981-1.131-8.132,1.18-9.265,5.165c-8.961,31.541-38.132,53.57-70.941,53.57
			c-40.673,0-73.763-33.09-73.763-73.763c0-40.674,33.091-73.763,73.764-73.763c36.529,0,67.167,26.148,72.85,62.172
			c0.646,4.092,4.491,6.888,8.578,6.24c4.092-0.645,6.885-4.485,6.24-8.578c-3.258-20.658-13.818-39.594-29.734-53.32
			C441.274,7.641,420.7,0,399.43,0c-48.945,0-88.764,39.819-88.764,88.764c0,48.945,39.819,88.764,88.764,88.764
			c39.481,0,74.588-26.512,85.371-64.472C485.933,109.072,483.62,104.923,479.635,103.792z"/>
	</g>
</g>
<g>
	<g>
		<path d="M398.927,30.741c-31.995,0-58.025,26.03-58.025,58.024c0,31.994,26.03,58.023,58.025,58.023s58.023-26.03,58.023-58.023
			C456.95,56.77,430.922,30.741,398.927,30.741z M398.928,131.787c-23.723,0-43.024-19.3-43.024-43.023
			c0-23.722,19.3-43.023,43.024-43.023c23.722,0,43.023,19.3,43.023,43.023C441.95,112.487,422.65,131.787,398.928,131.787z"/>
	</g>
</g>
<g>
	<g>
		<path d="M402.603,83.298V68.426c3.157,0.254,4.79,1.003,8.197,2.704c1.71,0.859,3.834,0.531,5.196-1.781
			c1.102-1.872,1.839-4.859-0.422-6.741c-3.219-2.672-8.874-3.519-12.972-3.519V56.87c0-1.264-1.562-2.134-2.872-2.134
			c-1.45,0-2.873,0.883-2.873,2.112v2.366c-9.774,1.288-16.394,6.543-16.394,16.478c0,10.176,7.356,13.535,16.394,16.985v16.815
			c-4.473-0.539-6.609-2.293-10.816-5.45c-2.102-1.575-4.158-0.979-5.704,1.188c-1.978,2.787-1.703,5.216-0.042,7.456
			c3.189,4.302,10.127,6.819,16.563,6.819v2.389c0,1.284,1.483,2.132,2.873,2.132c1.31,0,2.872-0.862,2.872-2.112v-2.619
			c8.535-1.319,15.971-6.72,15.971-17.914C418.573,91.122,412.124,86.761,402.603,83.298z M397.533,81.44
			c-5.078-2.029-6.76-3.67-6.76-6.844c0-3.678,3.112-5.339,6.76-5.915V81.44z M401.927,109.41V94.707
			c5.257,2.303,6.337,4.809,6.337,7.773C408.264,106.378,405.742,108.602,401.927,109.41z"/>
	</g>
</g>
<g>
</g>
<g>
</g>
<g>
</g>
<g>
</g>
<g>
</g>
<g>
</g>
<g>
</g>
<g>
</g>
<g>
</g>
<g>
</g>
<g>
</g>
<g>
</g>
<g>
</g>
<g>
</g>
<g>
</g>
</svg>
